<svg width="31" height="28" viewBox="0 0 31 28" fill="none" xmlns="http://www.w3.org/2000/svg">
<path d="M14.4667 1.72491C14.4667 4.53464 14.4667 7.34438 14.4667 10.1541C14.4667 14.6347 14.4667 19.1153 14.4667 23.5959C14.4667 24.6299 14.4667 25.6563 14.4667 26.6903C14.4667 27.6569 15.9662 27.6569 15.9662 26.6903C15.9662 23.8806 15.9662 21.0709 15.9662 18.2611C15.9662 13.7805 15.9662 9.29995 15.9662 4.81936C15.9662 3.78538 15.9662 2.75889 15.9662 1.72491C15.9662 0.758363 14.4667 0.758363 14.4667 1.72491Z" fill="#949494"/>
<path d="M27.7074 13.4584C24.8958 13.4584 22.0842 13.4584 19.2726 13.4584C14.789 13.4584 10.3055 13.4584 5.8219 13.4584C4.78723 13.4584 3.76006 13.4584 2.72539 13.4584C1.7582 13.4584 1.7582 14.9569 2.72539 14.9569C5.53699 14.9569 8.3486 14.9569 11.1602 14.9569C15.6438 14.9569 20.1273 14.9569 24.6109 14.9569C25.6456 14.9569 26.6727 14.9569 27.7074 14.9569C28.6746 14.9569 28.6746 13.4584 27.7074 13.4584Z" fill="#949494"/>
</svg>
