<svg width="32" height="25" viewBox="0 0 32 25" fill="none" xmlns="http://www.w3.org/2000/svg">
<path d="M28.5689 1.05994C29.3137 1.80149 30.0624 2.54681 30.8072 3.28835C30.9554 3.4359 31.096 3.57967 31.172 3.77641C31.3203 4.17366 31.2214 4.60875 30.9288 4.90764C30.8756 4.96439 30.8186 5.01735 30.7616 5.07411C30.3702 5.46379 29.975 5.85726 29.5835 6.24695C28.8995 6.92796 28.2116 7.61275 27.5276 8.29376C26.6383 9.17907 25.7491 10.0644 24.8598 10.9497C23.8679 11.9372 22.8723 12.9284 21.8804 13.9159C20.8733 14.9184 19.8663 15.921 18.8592 16.9236C17.9281 17.8506 16.9971 18.7775 16.066 19.7044C15.3097 20.4573 14.5535 21.2102 13.7972 21.9631C13.3108 22.4474 12.8282 22.9279 12.3417 23.4121C11.9769 23.7753 11.6387 24.1877 11.0572 24.1158C10.7152 24.0742 10.491 23.8661 10.263 23.6391C10.0274 23.4046 9.79175 23.17 9.55613 22.9354C8.72007 22.1031 7.88782 21.2745 7.05176 20.4422C6.04849 19.4434 5.04522 18.4446 4.04195 17.4457C3.26289 16.6702 2.48004 15.8908 1.70098 15.1152C1.51097 14.926 1.32476 14.7406 1.13474 14.5515C0.773719 14.192 0.625508 13.6699 0.895327 13.2046C0.986534 13.0457 1.12334 12.9284 1.24875 12.7998C1.45017 12.5992 1.65158 12.3987 1.84919 12.202C2.30143 11.7518 2.75746 11.2978 3.20969 10.8475C3.3199 10.7378 3.4301 10.6092 3.55551 10.5222C3.92034 10.2649 4.40297 10.2649 4.7754 10.507C4.98061 10.6395 5.15543 10.8589 5.32644 11.0291C6.1777 11.8766 7.03276 12.7279 7.88402 13.5754C8.75048 14.438 9.62074 15.3044 10.4872 16.167C10.6316 16.3107 10.776 16.4545 10.9166 16.5945C11.061 16.7383 11.3081 16.7383 11.4525 16.5945C12.0111 16.0383 12.5735 15.4784 13.1322 14.9222C14.4585 13.6018 15.7886 12.2777 17.1149 10.9573C18.6768 9.40229 20.2425 7.84354 21.8044 6.28857C23.0813 5.01735 24.3582 3.74614 25.6351 2.47493C26.0037 2.10794 26.3723 1.74095 26.7447 1.37018C27.0184 1.09778 27.2654 0.806457 27.6796 0.75349C28.014 0.715656 28.3332 0.836724 28.5689 1.05994C28.9223 1.39666 29.4581 0.863208 29.1047 0.526487C28.4587 -0.090203 27.444 -0.188571 26.7219 0.356235C26.6117 0.43947 26.5167 0.530271 26.4217 0.624855C26.1367 0.908609 25.8517 1.19236 25.5704 1.47233C24.381 2.65653 23.1915 3.84072 22.002 5.02492C20.4249 6.59502 18.844 8.16891 17.2669 9.73901C15.8608 11.1389 14.4547 12.5387 13.0524 13.9348C12.5773 14.4077 12.1061 14.8768 11.6311 15.3498C11.4069 15.573 11.1598 15.7886 10.9546 16.0232C10.947 16.0345 10.9356 16.0421 10.9242 16.0535C11.1028 16.0535 11.2815 16.0535 11.4601 16.0535C10.909 15.5049 10.3542 14.9525 9.80315 14.4039C8.81128 13.4165 7.81561 12.4252 6.82374 11.4377C6.47032 11.0859 6.11689 10.734 5.76347 10.3822C5.47085 10.0909 5.19723 9.81846 4.7906 9.66712C4.27756 9.47417 3.65812 9.54984 3.19829 9.84873C3.01208 9.9698 2.86006 10.1211 2.70805 10.2762C2.24822 10.734 1.78839 11.1918 1.32856 11.6496C0.978933 11.9977 0.553303 12.3382 0.283484 12.7506C-0.195349 13.477 -0.0433385 14.4342 0.557103 15.0395C1.03974 15.5238 1.52617 16.0043 2.0126 16.4886C2.95507 17.4268 3.89754 18.3651 4.84 19.3034C5.83567 20.2946 6.83134 21.2859 7.82701 22.2771C8.45786 22.9052 9.0887 23.5332 9.71954 24.1612C9.99316 24.4336 10.2744 24.6758 10.6582 24.7931C11.3195 24.9974 12.0301 24.7893 12.5127 24.3126C12.8054 24.0213 13.098 23.7299 13.3906 23.4386C14.0176 22.8144 14.6447 22.1901 15.2717 21.5658C16.1344 20.707 16.9971 19.8482 17.8597 18.9894C18.8592 17.9943 19.8549 17.0031 20.8543 16.0081C21.8918 14.9752 22.9293 13.9423 23.9667 12.9095C24.9358 11.9447 25.9049 10.98 26.8739 10.0152C27.6796 9.21312 28.4853 8.41104 29.2909 7.60897C29.8343 7.06794 30.3778 6.52692 30.9212 5.9859C31.21 5.69836 31.5711 5.40326 31.7725 5.04384C32.0575 4.5293 32.0727 3.92018 31.8295 3.38672C31.7155 3.13702 31.5369 2.94028 31.3469 2.75111C30.906 2.31224 30.4652 1.87337 30.0206 1.43071C29.7165 1.12804 29.4125 0.825374 29.1085 0.522704C28.7627 0.1822 28.223 0.715656 28.5689 1.05994Z" fill="white"/>
</svg>
